<?xml version="1.0" encoding="UTF-8" standalone="no"?>
<svg
   xmlns:dc="http://purl.org/dc/elements/1.1/"
   xmlns:cc="http://creativecommons.org/ns#"
   xmlns:rdf="http://www.w3.org/1999/02/22-rdf-syntax-ns#"
   xmlns:svg="http://www.w3.org/2000/svg"
   xmlns="http://www.w3.org/2000/svg"
   xmlns:sodipodi="http://sodipodi.sourceforge.net/DTD/sodipodi-0.dtd"
   xmlns:inkscape="http://www.inkscape.org/namespaces/inkscape"
   version="1.1"
   preserveAspectRatio="xMidYMid meet"
   viewBox="-42.7 -42.7 299.77429 99.999998"
   id="svg62"
   sodipodi:docname="logo.svg"
   width="299.77429"
   height="100"
   inkscape:version="1.0.1 (0767f8302a, 2020-10-17)">
  <metadata
     id="metadata68">
    <rdf:RDF>
      <cc:Work
         rdf:about="">
        <dc:format>image/svg+xml</dc:format>
        <dc:type
           rdf:resource="http://purl.org/dc/dcmitype/StillImage" />
      </cc:Work>
    </rdf:RDF>
  </metadata>
  <defs
     id="defs66" />
  <sodipodi:namedview
     pagecolor="#ffffff"
     bordercolor="#666666"
     borderopacity="1"
     objecttolerance="10"
     gridtolerance="10"
     guidetolerance="10"
     inkscape:pageopacity="0"
     inkscape:pageshadow="2"
     inkscape:window-width="1819"
     inkscape:window-height="915"
     id="namedview64"
     showgrid="false"
     inkscape:zoom="3.4172942"
     inkscape:cx="149.85"
     inkscape:cy="38.244833"
     inkscape:window-x="72"
     inkscape:window-y="27"
     inkscape:window-maximized="0"
     inkscape:current-layer="svg62" />
  <path
     fill="#ae2573"
     d="m 42.907202,-42.405951 h -85.31 v 58.93 c 0,24.54 18.36,41.07 42.56999951,41.07 6.52999999,0 12.64000049,-1.21 18.09000049,-3.45 v 0.01 l 10.17,-4.25 14.48,6.61 z m -42.71000049,78.19 -18.86999951,-8.61 v -50.6 H 0.19720151 Z m 24.45000049,-18.44 v 10.04 l -18.4200005,8.41 v -10.05 z"
     id="path58" />
  <path
     fill="#000000"
     d="m 134.97,-3.65 c -2.24,-4.43 -5.19,-12.06 -5.8,-20 h -4.65 c 0,0 1.1,14.3 8.04,23.84 h 4.83 c 6.93,-9.54 8.03,-23.84 8.03,-23.84 h -4.64 c -0.61,7.94 -3.56,15.58 -5.81,20 m 94.84,-29.54 h -4.77 v 9.53 h -2.9 v 3.64 h 2.9 v 13.37 c 0,3.66 1.9,6.83 6.63,6.83 h 2.54 v -4.24 h -1.72 c -2,0 -2.68,-0.98 -2.68,-2.88 v -13.08 h 4.4 v -3.64 h -4.4 z M 78.07,-11.27 c 0,4.43 -2.73,7.29 -6.96,7.29 -4.23,0 -6.96,-2.86 -6.96,-7.29 v -21.9 h -4.87 v 22.14 c 0,3.26 1.2,6.19 3.39,8.26 2.15,2.03 5.14,3.15 8.44,3.14 2.69,0 5.18,-0.74 7.17,-2.12 l 4.65,2.12 v -33.54 h -4.86 z m 28.04,-10.37 c -1.39,-1.34 -3.72,-2.37 -7.14,-2.37 -2.25,0 -4.32,0.86 -5.62,1.78 l -3.9,-1.78 V 0.18 h 4.77 v -14.44 c 0,-3.69 2.09,-5.28 4.75,-5.28 2.66,0 4.75,1.59 4.76,5.28 V 0.18 h 4.77 v -15.14 c 0,-2.66 -0.56,-4.9 -2.39,-6.68 m 71.38,7.4 c 0,-3.7 2.09,-5.28 4.75,-5.28 0.93,0 1.79,0.19 2.52,0.6 l 2.53,-4.1 c -1.31,-0.59 -2.98,-0.97 -5.05,-0.97 -2.25,0 -4.32,0.86 -5.63,1.78 l -3.89,-1.78 V 0.2 h 4.77 z m -58.25,-9.41 h -4.76 V 0.19 h 4.76 z m 0,-9.54 h -4.76 v 4.76 h 4.76 z m 92.9,33.37 h 4.76 v -23.84 h -4.76 z m 0,-28.6 h 4.76 v -4.77 h -4.76 z m -73.71,74.99 h 4.76 V 22.73 h -4.76 z m 0,-28.62 h 4.76 v -4.77 h -4.76 z m 14.82,-31.65 c 0.02,-0.7 0.06,-1.27 0.15,-1.78 0.09,-0.5 0.23,-0.94 0.47,-1.49 0.7,-1.67 2.52,-2.7 4.76,-2.7 1.6,0 3.71,0.29 4.67,1.68 0.21,0.31 0.54,1.13 0.25,2.05 -0.35,1.1 -1.45,2.09 -3.28,2.76 -2.44,0.9 -5.22,1.35 -7,1.54 h -0.02 z m 5.98,14.23 c 2.04,0 3.66,-0.3 5.1,-0.94 1.28,-0.58 2.45,-1.44 3.79,-2.78 l -2.83,-2.68 c -0.85,0.86 -1.68,1.42 -2.61,1.76 -0.92,0.35 -1.95,0.5 -3.36,0.5 -2.94,0 -4.97,-1.48 -5.74,-4.18 V -7.8 h 0.01 c 2.38,-0.32 6.75,-0.7 10.41,-2.68 1.78,-0.97 3.09,-2.09 3.69,-3.72 0.47,-1.27 0.67,-2.86 0.27,-4.3 -0.54,-1.96 -1.46,-3.11 -2.88,-4.06 -1.61,-1.08 -3.84,-1.44 -6.46,-1.44 -1.59,0 -3.04,0.28 -4.29,0.82 -1.23,0.53 -2.31,1.35 -3.16,2.39 -0.86,1.05 -1.51,2.34 -1.95,3.84 -0.44,1.52 -0.67,3.26 -0.67,5.19 0,4.28 1.05,7.5 3.11,9.57 1.8,1.81 4.35,2.72 7.57,2.72 M 88.28,34.75 h -0.01 v -2.06 c 0.02,-0.7 0.06,-1.27 0.14,-1.77 0.09,-0.5 0.23,-0.94 0.47,-1.5 0.7,-1.67 2.52,-2.7 4.76,-2.7 1.6,0 3.71,0.29 4.67,1.69 0.21,0.31 0.54,1.13 0.25,2.04 -0.35,1.11 -1.45,2.09 -3.27,2.76 -2.44,0.9 -5.22,1.35 -7.01,1.54 m 10.73,1.16 c 1.78,-0.97 3.09,-2.09 3.69,-3.72 0.47,-1.27 0.67,-2.86 0.27,-4.3 -0.54,-1.96 -1.46,-3.11 -2.88,-4.06 -1.62,-1.08 -3.84,-1.44 -6.46,-1.44 -1.59,0 -3.04,0.28 -4.29,0.82 -1.23,0.53 -2.31,1.35 -3.16,2.39 -0.86,1.04 -1.51,2.34 -1.95,3.85 -0.44,1.52 -0.67,3.26 -0.67,5.18 0,4.28 1.04,7.5 3.11,9.57 1.8,1.81 4.35,2.72 7.57,2.72 2.04,0 3.66,-0.3 5.1,-0.94 1.28,-0.57 2.46,-1.43 3.79,-2.78 l -2.83,-2.68 c -0.85,0.86 -1.68,1.42 -2.61,1.77 -0.92,0.34 -1.95,0.5 -3.36,0.49 -2.94,0 -4.97,-1.48 -5.73,-4.17 l -0.01,-0.02 h 0.02 c 2.38,-0.32 6.74,-0.7 10.4,-2.68 m 81.16,-1.16 h -0.01 v -2.06 c 0.02,-0.7 0.06,-1.27 0.14,-1.77 0.09,-0.5 0.23,-0.94 0.47,-1.5 0.7,-1.67 2.52,-2.7 4.76,-2.7 1.6,0 3.71,0.29 4.67,1.69 0.21,0.31 0.54,1.13 0.25,2.04 -0.35,1.11 -1.45,2.09 -3.28,2.76 -2.44,0.9 -5.22,1.35 -7,1.54 m 10.73,1.16 c 1.78,-0.97 3.09,-2.09 3.69,-3.72 0.47,-1.27 0.67,-2.86 0.27,-4.3 -0.54,-1.96 -1.46,-3.1 -2.88,-4.06 -1.62,-1.08 -3.84,-1.44 -6.46,-1.44 -1.59,0 -3.03,0.28 -4.29,0.82 -1.23,0.53 -2.31,1.35 -3.16,2.39 -0.86,1.05 -1.51,2.34 -1.95,3.85 -0.44,1.52 -0.67,3.26 -0.67,5.18 0,4.28 1.04,7.5 3.11,9.57 1.8,1.81 4.35,2.72 7.57,2.72 2.04,0 3.66,-0.3 5.1,-0.94 1.29,-0.58 2.45,-1.43 3.79,-2.78 l -2.83,-2.68 c -0.85,0.86 -1.68,1.42 -2.61,1.77 -0.92,0.34 -1.95,0.5 -3.36,0.49 -2.94,0 -4.98,-1.48 -5.74,-4.17 v -0.02 h 0.02 c 2.38,-0.32 6.74,-0.7 10.4,-2.68 m 51.26,-47.56 v -2.05 c 0.02,-0.7 0.06,-1.27 0.14,-1.78 0.09,-0.5 0.23,-0.94 0.47,-1.5 0.7,-1.67 2.52,-2.7 4.76,-2.7 1.6,0 3.71,0.29 4.67,1.69 0.21,0.31 0.54,1.13 0.25,2.04 -0.35,1.11 -1.45,2.09 -3.28,2.77 -2.44,0.9 -5.22,1.35 -7,1.53 z m 9.42,7.54 c -0.92,0.34 -1.95,0.5 -3.36,0.5 -2.94,0 -4.98,-1.48 -5.74,-4.18 v -0.02 h 0.02 c 2.38,-0.32 6.74,-0.7 10.4,-2.68 1.78,-0.97 3.09,-2.09 3.69,-3.71 0.47,-1.27 0.67,-2.86 0.27,-4.31 -0.54,-1.96 -1.46,-3.1 -2.88,-4.05 -1.61,-1.08 -3.84,-1.45 -6.46,-1.45 -1.59,0 -3.04,0.28 -4.29,0.82 -1.23,0.53 -2.31,1.35 -3.16,2.4 -0.86,1.04 -1.51,2.34 -1.95,3.84 -0.44,1.52 -0.67,3.26 -0.67,5.18 0,4.28 1.04,7.5 3.11,9.57 1.8,1.81 4.35,2.72 7.57,2.73 2.04,0 3.66,-0.3 5.1,-0.95 1.28,-0.57 2.46,-1.43 3.79,-2.78 l -2.83,-2.68 c -0.85,0.86 -1.68,1.42 -2.61,1.77 m -51.14,-9.73 -3.74,-0.33 c -2.52,-0.24 -3.27,-1.32 -3.27,-2.75 0,-1.8 1.45,-3.07 4.3,-3.07 2.24,0 4.34,0.47 5.84,1.75 l 3.01,-3.07 c -2.2,-1.94 -5.24,-2.69 -8.79,-2.69 -4.95,0 -8.92,2.65 -8.93,7.32 0,4.21 2.57,6.24 7.01,6.62 l 3.79,0.33 c 2.29,0.19 3.18,1.23 3.18,2.84 0,2.26 -2.29,3.3 -5.19,3.31 -2.34,0 -4.9,-0.52 -6.83,-2.51 l -3.12,3.17 c 2.8,2.79 6.07,3.45 9.95,3.45 5.65,0 9.86,-2.6 9.86,-7.61 0,-4.25 -2.62,-6.38 -7.06,-6.76 M 74.28,39.03 c -0.01,1.7 -1.6,3.55 -4.46,3.55 -3.88,0 -6.03,-2.57 -6.03,-6.64 v -3.31 c 0.05,-1.45 0.14,-2.15 0.61,-3.23 0.75,-1.77 2.7,-2.66 4.74,-2.65 2.92,0 5.14,0.94 5.14,3.41 0.01,2.22 0.01,6.65 0,8.87 m 0,-15.64 c -1.36,-0.6 -3.07,-0.94 -5.16,-0.95 -6.87,0 -10.05,4.44 -10.04,12.1 0,9.02 4.72,12.15 10.65,12.15 2.21,0 3.89,-0.75 5.34,-1.81 l 3.98,1.81 v -33.5 h -4.77 z m 48.55,16.35 V 13.19 h -4.77 v 26.82 c 0,3.51 1.96,6.55 6.5,6.55 h 10.16 V 42.5 h -9.32 c -1.92,0 -2.57,-0.94 -2.57,-2.77 m 32.06,-0.28 V 13.19 h -4.76 v 26.55 c 0,3.66 1.9,6.83 6.63,6.83 h 2.53 v -4.24 h -1.71 c -2,0 -2.68,-0.98 -2.69,-2.88 m 13.48,0 V 13.19 h -4.76 v 26.55 c 0,3.66 1.9,6.83 6.63,6.83 h 2.53 v -4.24 h -1.71 c -2,0 -2.68,-0.98 -2.69,-2.88 m 84.64,-73.86 -10.88,4.96 v 4.17 l 10.88,-4.97 z"
     id="path60" />
</svg>
